<?xml version="1.0" standalone="no"?>
<!DOCTYPE svg PUBLIC "-//W3C//DTD SVG 20010904//EN"
 "http://www.w3.org/TR/2001/REC-SVG-20010904/DTD/svg10.dtd">
<svg version="1.0" xmlns="http://www.w3.org/2000/svg"
 width="2048.000000pt" height="2048.000000pt" viewBox="0 0 2048.000000 2048.000000"
 preserveAspectRatio="xMidYMid meet">
<metadata>
Created by potrace 1.14, written by Peter Selinger 2001-2017
</metadata>
<g transform="translate(0.000000,2048.000000) scale(0.100000,-0.100000)"
fill="#000000" stroke="none">
<path d="M13285 18913 c-242 -20 -633 -180 -885 -362 -385 -278 -666 -548
-1021 -981 -168 -205 -396 -529 -568 -805 -52 -82 -105 -168 -119 -190 -14
-22 -42 -69 -63 -105 -165 -294 -185 -329 -227 -410 -135 -257 -289 -578 -376
-785 -26 -60 -51 -118 -57 -128 -9 -17 -39 -91 -90 -222 -11 -27 -27 -65 -35
-83 -8 -18 -23 -56 -34 -85 -10 -29 -29 -81 -42 -117 -45 -118 -145 -402 -201
-570 -101 -304 -214 -633 -281 -820 -37 -102 -84 -232 -105 -290 -21 -58 -41
-118 -45 -135 -16 -64 -236 -624 -280 -711 -14 -29 -26 -56 -26 -61 0 -10 -72
-204 -125 -340 -16 -39 -31 -70 -34 -69 -3 2 -67 39 -141 83 -74 44 -166 97
-205 118 -38 21 -106 58 -150 82 -44 25 -161 84 -260 133 -842 411 -1610 638
-2405 711 -174 16 -687 17 -855 1 -565 -53 -1073 -221 -1469 -486 -178 -119
-248 -177 -412 -340 -226 -226 -351 -400 -488 -681 -204 -417 -290 -789 -303
-1310 -6 -249 10 -597 27 -603 6 -2 10 -8 10 -13 0 -6 -4 -8 -9 -5 -23 15 53
-307 116 -489 306 -884 976 -1428 1854 -1506 162 -14 515 -6 674 16 700 96
1447 441 2162 997 65 51 120 94 123 97 3 3 32 28 65 56 200 165 553 509 761
740 222 248 455 548 656 845 151 223 268 416 432 713 l37 68 67 -47 c304 -215
737 -575 1016 -845 76 -74 152 -145 169 -159 17 -14 103 -90 191 -169 191
-171 423 -366 588 -494 118 -91 390 -291 417 -306 11 -7 3 -34 -39 -137 -29
-70 -74 -187 -101 -259 -26 -71 -73 -191 -104 -265 -72 -172 -217 -548 -240
-620 -10 -30 -73 -210 -140 -400 -68 -190 -149 -421 -180 -514 -31 -94 -65
-188 -75 -210 -10 -23 -33 -86 -50 -141 -18 -55 -38 -116 -45 -135 -8 -19 -19
-51 -24 -70 -6 -19 -25 -78 -44 -130 -19 -52 -42 -117 -51 -145 -10 -27 -29
-79 -43 -115 -13 -36 -36 -94 -50 -130 -27 -72 -87 -217 -109 -267 -8 -18 -21
-51 -30 -74 -8 -23 -18 -47 -22 -53 -5 -6 -15 -27 -22 -46 -20 -51 -113 -254
-212 -460 -108 -224 -367 -699 -440 -807 -15 -23 -28 -44 -28 -47 0 -3 -41
-70 -92 -148 -112 -176 -106 -167 -170 -259 -97 -140 -121 -173 -192 -267 -39
-51 -89 -117 -111 -146 -39 -51 -73 -93 -204 -246 -170 -199 -469 -485 -641
-611 -314 -231 -570 -342 -816 -356 -94 -5 -108 -4 -200 26 -65 20 -123 47
-167 76 -37 25 -67 48 -67 51 0 4 8 0 18 -7 15 -13 16 -12 3 4 -7 9 -21 16
-30 15 -8 -2 -16 4 -16 12 -1 8 -7 14 -14 12 -7 -1 -10 2 -7 7 3 5 -5 16 -18
25 -84 55 -242 350 -329 613 -120 366 -160 652 -169 1218 -3 142 9 403 23 495
5 36 11 106 14 155 3 50 9 123 14 163 4 40 5 75 2 77 -15 15 -160 -400 -210
-600 -36 -144 -73 -342 -98 -525 -26 -193 -26 -741 0 -915 23 -153 60 -329 92
-434 13 -45 21 -89 18 -98 -4 -10 -2 -14 5 -9 13 8 26 -29 16 -45 -5 -8 -3 -9
6 -4 10 6 12 3 8 -13 -4 -14 -2 -20 5 -15 7 4 8 0 4 -11 -5 -11 -3 -15 5 -10
7 5 9 0 6 -14 -4 -14 -2 -20 5 -15 7 4 8 0 4 -11 -5 -11 -3 -15 5 -10 8 5 9 2
5 -10 -5 -11 -3 -15 5 -10 8 5 9 2 5 -10 -4 -10 -3 -15 3 -11 9 6 14 -10 13
-42 -1 -7 4 -10 10 -6 6 4 8 0 4 -11 -5 -11 -3 -15 5 -10 8 5 9 2 5 -10 -4
-10 -3 -15 3 -11 12 7 33 -32 24 -47 -5 -7 -3 -8 6 -3 10 6 12 4 7 -8 -3 -9
-3 -16 2 -14 4 1 29 -29 56 -68 161 -238 431 -409 715 -455 97 -15 305 -12
401 5 452 84 901 356 1385 839 163 163 307 322 422 465 503 628 925 1329 1325
2201 50 109 180 417 224 530 137 355 150 391 254 699 178 528 256 754 294 856
50 137 149 418 170 485 27 86 235 619 263 675 14 28 40 93 59 145 65 184 136
360 145 360 5 0 69 -35 142 -79 864 -515 1788 -865 2636 -1000 566 -91 1140
-87 1626 9 1050 208 1819 865 2132 1820 72 218 114 417 144 675 16 138 15 656
-1 780 -6 50 -12 97 -12 105 -1 42 -46 240 -81 360 -278 955 -977 1559 -1899
1641 -162 14 -515 6 -674 -16 -700 -96 -1447 -441 -2162 -997 -65 -51 -120
-94 -123 -97 -3 -3 -32 -28 -65 -56 -200 -165 -553 -509 -761 -740 -222 -248
-455 -548 -656 -845 -151 -223 -268 -416 -432 -713 l-37 -68 -67 47 c-306 216
-725 565 -1028 856 -82 78 -174 163 -204 188 -30 24 -80 68 -110 96 -236 223
-737 627 -990 798 -30 21 -57 39 -58 41 -2 2 20 61 48 131 29 71 74 187 101
259 26 71 73 191 104 265 72 172 217 548 240 620 10 30 73 210 140 400 68 190
149 421 180 514 31 94 65 188 75 210 10 23 33 86 50 141 18 55 38 116 45 135
8 19 19 51 24 70 6 19 25 78 44 130 19 52 42 118 51 145 10 28 28 78 42 113
13 34 35 92 50 130 28 74 88 219 110 269 8 18 21 51 30 74 8 23 18 47 22 53 5
6 15 27 22 46 20 51 113 254 212 460 108 224 367 699 440 807 15 23 28 44 28
47 0 3 41 70 92 148 112 176 106 167 170 259 97 140 121 173 192 267 39 51 89
117 111 146 39 51 73 93 204 246 170 199 469 485 641 611 317 233 572 344 820
356 94 4 113 2 183 -21 43 -14 83 -26 90 -26 20 0 160 -96 192 -131 l30 -34
-35 30 -35 30 29 -32 c16 -18 32 -30 36 -28 9 6 65 -55 107 -116 91 -132 203
-388 268 -609 65 -224 124 -556 110 -627 -3 -20 -2 -33 3 -29 11 6 22 -312 21
-588 -1 -123 -4 -191 -9 -176 -6 16 -7 4 -3 -35 2 -33 -2 -121 -11 -195 -8
-74 -18 -171 -21 -215 -3 -44 -8 -96 -11 -115 -15 -107 152 361 205 575 36
144 73 342 98 525 26 193 26 740 0 915 -23 151 -60 326 -93 433 -14 45 -22 88
-18 94 5 7 3 8 -6 3 -10 -6 -12 -3 -8 13 4 14 2 20 -5 15 -6 -4 -8 2 -5 15 4
12 3 20 -2 17 -11 -7 -53 102 -44 116 5 8 3 9 -6 4 -10 -6 -12 -4 -6 11 4 10
4 15 0 11 -4 -4 -26 28 -49 71 -138 258 -306 425 -528 526 -115 52 -206 74
-363 85 -137 11 -157 11 -239 4z m3126 -6573 c442 -45 822 -228 1075 -519 351
-403 540 -1029 495 -1642 -80 -1071 -599 -1784 -1533 -2105 -451 -155 -1019
-204 -1563 -134 -795 102 -1645 394 -2455 842 -138 77 -386 223 -404 239 -17
15 232 450 421 736 780 1178 1854 2079 2898 2432 381 129 757 182 1066 151z
m-11150 -65 c811 -28 1848 -352 2779 -867 137 -76 385 -223 403 -238 21 -18
-214 -431 -427 -750 -148 -222 -424 -592 -508 -681 -7 -8 -53 -61 -103 -119
-103 -121 -454 -477 -554 -563 -37 -32 -79 -68 -92 -81 -41 -37 -241 -199
-304 -246 -33 -25 -62 -47 -65 -50 -21 -23 -345 -239 -450 -301 -304 -177
-632 -327 -895 -408 -343 -105 -683 -153 -930 -131 -468 40 -860 222 -1122
519 -359 407 -549 1032 -504 1652 97 1305 854 2083 2186 2250 96 12 363 27
405 23 14 -2 95 -6 181 -9z"/>
</g>
</svg>
